<?xml version="1.0" encoding="utf-8"?>
<!-- Generator: Adobe Illustrator 17.0.2, SVG Export Plug-In . SVG Version: 6.00 Build 0)  -->
<!DOCTYPE svg PUBLIC "-//W3C//DTD SVG 1.1//EN" "http://www.w3.org/Graphics/SVG/1.1/DTD/svg11.dtd">
<svg version="1.1" id="Layer_1" xmlns="http://www.w3.org/2000/svg" xmlns:xlink="http://www.w3.org/1999/xlink" x="0px" y="0px"
	 width="640px" height="640px" viewBox="0 0 640 640" enable-background="new 0 0 640 640" xml:space="preserve">
<g>
	<path fill="#EAD6A6" d="M610.948,319.059c0,48.15-0.281,96.302,0.176,144.447c0.133,13.96-5.492,22.462-17.576,29.141
		c-83.917,46.39-167.619,93.167-251.271,140.035c-11.108,6.223-21.071,6.353-32.454,0.206
		c-88.363-47.71-176.865-95.167-265.527-142.319c-10.932-5.814-15.882-13.582-15.856-25.696
		c0.209-94.902,0.318-189.805,0.265-284.708c-0.008-14.039,5.736-23.128,18.335-29.958C133.789,103.18,220.349,55.803,306.702,8.055
		c13.43-7.426,24.96-7.197,38.275,0.032c81.504,44.257,163.164,88.233,245.046,131.787c15.023,7.991,21.764,18.626,21.531,35.786
		c-0.649,47.792-0.225,95.598-0.225,143.399C611.202,319.059,611.075,319.059,610.948,319.059z M585.996,317.482
		c0.049,0,0.099,0,0.148,0c0-46.385-0.307-92.774,0.263-139.152c0.112-9.083-2.929-14.182-10.46-18.184
		c-76.638-40.726-153.462-81.117-229.6-122.762c-15.891-8.692-27.826-7.287-42.967,1.123
		c-79.217,44.001-158.939,87.097-238.675,130.156c-8.046,4.345-11.244,9.073-11.188,18.529c0.521,88.233,0.675,176.47,0.309,264.703
		c-0.045,10.781,3.912,16.12,12.925,20.939c82.382,44.045,164.625,88.352,246.688,132.988c9.39,5.108,16.55,4.669,25.791-0.517
		c78.727-44.179,157.675-87.966,236.78-131.464c7.574-4.165,10.168-8.947,10.119-17.202
		C585.854,410.255,585.996,363.868,585.996,317.482z"/>
	<path fill="#EAD6A6" d="M413.208,461.925h-204.63l0.063-3.952h5.001c13.831,0,25.056-11.087,25.317-24.852v-220.34
		c-0.897-13.176-11.852-23.59-25.262-23.59h-4.999l-0.064-3.929H360.15c17.037-0.153,39.829-4.094,47.177-7.189v69.099l-3.988-0.059
		v-4.643c0.048-23.785-14.903-39.324-38.603-40.315h-66.5v114.987h52.393c19.409-0.368,33.57-14.619,33.515-33.87v-3.422
		l3.861-0.053v91.338l-3.861-0.048v-3.422c0.051-19.084-13.88-33.256-33.017-33.854h-52.895V445.03h51.884
		c39.478,0,65.103-24.532,77.355-63.752h3.952L413.208,461.925z"/>
</g>
</svg>
